<svg id="Ebene_1" data-name="Ebene 1" xmlns="http://www.w3.org/2000/svg" xmlns:xlink="http://www.w3.org/1999/xlink" viewBox="0 0 282.66 114.14"><defs><clipPath id="clip-path" transform="translate(-279.61 -199.46)"><rect width="841.89" height="595.28" style="fill:none"/></clipPath></defs><title>logo</title><polygon points="93.07 13.27 61.06 72.73 29.05 13.27 29.05 92.38 23.07 92.38 23.07 1.3 28.92 1.3 61.06 61.28 93.2 1.3 99.05 1.3 99.05 92.38 93.07 92.38 93.07 13.27" style="fill:#646363"/><polygon points="121.81 1.3 178.15 1.3 178.15 6.5 127.8 6.5 127.8 44.11 171.65 44.11 171.65 49.44 127.8 49.44 127.8 87.04 178.15 87.04 178.15 92.38 121.81 92.38 121.81 1.3" style="fill:#646363"/><g style="clip-path:url(#clip-path)"><path d="M516.31,250.33,498,246.82c-13.4-2.6-21.6-9.89-21.6-23.16,0-15.61,10.93-24.2,31.1-24.2s30.84,9.11,30.84,27.32v.65h-6v-.65c0-14.57-8.46-22.12-24.85-22.12s-24.85,6.77-24.85,18.61c0,10.28,6.25,16,16.65,18l18.34,3.51c13.66,2.73,21.6,9.89,21.6,23.16,0,16.65-11.84,25.24-32,25.24s-31.88-9.11-31.88-27.32v-.65h6v.65c0,14.57,9.37,22,25.89,22S533,281.3,533,268.29c0-10.28-6.25-15.87-16.65-18" transform="translate(-279.61 -199.46)" style="fill:#646363"/><line x1="2.83" y1="43.54" x2="2.83" y2="92.2" style="fill:none;stroke:#0062a7;stroke-miterlimit:10;stroke-width:5.6529998779296875px"/><line x1="279.83" y1="1.42" x2="279.83" y2="50.09" style="fill:none;stroke:#007b3d;stroke-miterlimit:10;stroke-width:5.6529998779296875px"/><line x1="167.06" y1="111.32" x2="119.01" y2="111.32" style="fill:none;stroke:#0095db;stroke-miterlimit:10;stroke-width:5.6529998779296875px"/></g></svg>

